<?xml version="1.0" encoding="UTF-8" standalone="no"?>
<!-- Created with Inkscape (http://www.inkscape.org/) -->

<svg
   width="210mm"
   height="297mm"
   viewBox="0 0 210 297"
   version="1.1"
   id="svg5"
   inkscape:version="1.1.2 (0a00cf5339, 2022-02-04, custom)"
   sodipodi:docname="profile_icon.svg"
   xmlns:inkscape="http://www.inkscape.org/namespaces/inkscape"
   xmlns:sodipodi="http://sodipodi.sourceforge.net/DTD/sodipodi-0.dtd"
   xmlns="http://www.w3.org/2000/svg"
   xmlns:svg="http://www.w3.org/2000/svg">
  <sodipodi:namedview
     id="namedview7"
     pagecolor="#ffffff"
     bordercolor="#111111"
     borderopacity="1"
     inkscape:pageshadow="0"
     inkscape:pageopacity="0"
     inkscape:pagecheckerboard="1"
     inkscape:document-units="mm"
     showgrid="false"
     inkscape:zoom="0.76435185"
     inkscape:cx="139.33374"
     inkscape:cy="561.91399"
     inkscape:window-width="1920"
     inkscape:window-height="1051"
     inkscape:window-x="-9"
     inkscape:window-y="-9"
     inkscape:window-maximized="1"
     inkscape:current-layer="layer1" />
  <defs
     id="defs2" />
  <g
     inkscape:label="Layer 1"
     inkscape:groupmode="layer"
     id="layer1">
    <ellipse
       style="fill:#ff0000;fill-rule:evenodd;stroke-width:0.264583"
       id="path31"
       cx="103.84615"
       cy="164.07692"
       rx="70.615387"
       ry="73.03846" />
    <path
       style="fill:#ff9955;stroke:none;stroke-width:1.3083"
       d="M 365.15529,894.03452 C 277.30732,884.8518 196.98705,828.14541 156.33855,746.60919 133.75157,701.30232 124.45097,655.64092 127.11284,603.12538 c 6.23762,-123.06051 95.82376,-229.06384 213.8563,-253.04672 38.24142,-7.77023 79.50226,-6.62467 116.93516,3.24657 111.83198,29.49064 193.91153,132.03296 199.95146,249.80015 2.71552,52.94753 -6.57379,98.14791 -29.58705,143.96625 -50.19347,99.9328 -154.6668,158.27878 -263.11342,146.94289 z"
       id="path885"
       transform="scale(0.26458333)" />
    <path
       style="fill:#ff9955;stroke-width:0.264583"
       id="path1167"
       d="m 81.203884,136.85099 c 0.493392,-0.007 1.044942,-0.0338 1.530746,0.0493 1.208699,0.20678 2.370302,0.64839 3.503285,1.09564 1.009197,0.39838 4.701225,2.02318 5.569995,2.40274 6.402284,2.7456 12.65361,5.81852 18.74533,9.19424 3.52818,1.92082 6.77461,4.27654 9.83078,6.87077 2.35259,2.03618 4.65858,4.13776 6.67996,6.5075 0.76468,1.11805 1.65252,2.15444 2.34327,3.32296 0.1034,0.17493 0.23664,0.34037 0.28923,0.53666 0.0486,0.18125 0.004,0.37527 0.005,0.5629 -0.59044,1.13668 -1.52338,1.62536 -2.57749,2.33909 -0.1888,0.12783 0.77428,-0.47653 0.56565,-0.38456 -1.23155,0.54288 -2.41647,1.187 -3.64302,1.7411 -1.46253,0.6607 -2.94843,1.2684 -4.42265,1.90261 -7.67246,2.91133 -16.13296,6.38505 -24.503289,6.03412 -1.359551,-0.057 -2.698734,-0.35119 -4.048101,-0.52679 -3.780382,-0.92069 -7.095752,-2.65176 -9.932969,-5.32381 -1.56097,-1.47009 -2.995882,-3.35347 -4.154196,-5.15854 -0.468866,-0.73066 -0.858338,-1.50931 -1.287505,-2.26397 -0.618244,-1.33684 -1.267619,-2.30144 -1.203365,-3.84154 0.129347,-3.10022 2.606218,-7.12341 4.176149,-9.74939 1.052293,-1.63526 2.029405,-3.3108 3.325114,-4.77266 0.776272,-0.87581 1.593826,-1.71429 2.405004,-2.55788 2.793223,-2.90481 3.546364,-3.60893 6.442544,-6.46512 4.813744,-4.72478 9.549634,-9.5417 14.748024,-13.84893 -1.17081,-1.17406 4.04638,-1.30383 3.20268,-2.31557 -0.39935,-0.47891 -1.90857,0.47135 -1.5801,1.00139 0.33309,0.5375 1.15761,-0.5134 1.75618,-0.71726 1.58014,-0.53816 2.43432,-0.64579 4.07237,-0.96455 2.02465,-0.31851 4.06963,-0.47638 6.11542,-0.57246 1.30052,-0.0611 1.98188,-0.11897 3.26032,0.0591 0.45253,0.063 0.89384,0.18995 1.34075,0.28492 1.15887,0.4727 1.77064,0.59893 2.71044,1.51707 2.23222,2.18075 2.70251,5.55412 3.19338,8.46964 0.0338,0.78908 0.13841,1.57829 0.10144,2.36723 -0.23904,5.10086 -2.84121,10.40589 -4.89192,14.99694 -2.1913,4.59412 -4.29985,9.22583 -6.40866,13.85813 -0.25429,0.58471 -0.52231,1.16364 -0.76286,1.75413 -0.71821,1.76307 -0.51675,1.51186 -1.24114,3.23127 -0.63612,1.50991 -1.37184,2.9775 -2.11561,4.4362 -0.54038,0.97964 -1.04228,2.0414 -1.96168,2.73582 -0.27707,0.20927 -1.18482,0.72209 -0.90319,0.51899 2.25167,-1.62377 3.24915,-1.73325 1.03933,-1.17898 -3.30266,0.52633 -6.27084,-0.886 -9.08411,-2.44322 -2.07568,-1.12644 -3.86495,-2.64512 -5.661092,-4.1538 -0.180269,-0.14965 -0.360538,-0.2993 -0.540804,-0.44895 0,0 -3.306254,2.0728 -3.306254,2.0728 v 0 c 0.183856,0.1468 0.36771,0.29359 0.551566,0.44039 1.85932,1.49088 3.698224,3.00669 5.812774,4.13969 2.85231,1.57157 5.81993,3.11287 9.18195,2.71242 2.72889,-0.56372 1.2511,-0.14286 5.5991,-2.53669 1.35387,-0.74539 2.07556,-2.0861 2.73197,-3.42393 0.71816,-1.46975 1.444,-2.94497 2.073,-4.45576 0.40328,-0.96862 0.82744,-2.2364 1.21934,-3.20507 0.23689,-0.58553 0.49903,-1.16054 0.74854,-1.74082 2.06679,-4.60223 4.09132,-9.22322 6.24467,-13.78619 1.36613,-3.11206 2.80535,-6.20968 3.80257,-9.46703 0.56177,-1.835 1.05358,-3.80429 1.1333,-5.73794 0.033,-0.80108 -0.088,-1.60111 -0.13201,-2.40166 -0.52464,-2.96818 -1.04648,-6.50043 -3.24168,-8.76901 -0.95764,-0.98964 -1.57009,-1.13599 -2.76585,-1.67222 -1.28976,-0.28805 -1.6214,-0.42475 -2.99151,-0.45618 -0.57591,-0.0132 -1.15146,0.0402 -1.72679,0.0692 -2.06185,0.1042 -4.12211,0.26539 -6.16741,0.55238 -1.54216,0.2786 -2.59609,0.41756 -4.09153,0.88943 -3.60412,1.13725 -6.78319,3.38041 -9.71212,5.7117 -5.076605,4.3077 -9.725856,9.07634 -14.452182,13.75853 -2.534121,2.49666 -4.07998,4.00101 -6.571988,6.52994 -0.871548,0.88446 -1.762199,1.75162 -2.594067,2.6735 -1.30647,1.44783 -2.223365,3.14741 -3.243559,4.79373 -1.555941,2.70535 -4.039325,6.8609 -4.124494,10.01419 -0.04349,1.61016 0.650301,2.5498 1.340077,3.9144 0.454943,0.75267 0.873596,1.52852 1.36483,2.25803 1.197824,1.77885 2.725076,3.72528 4.282024,5.19025 2.950565,2.77626 6.14912,4.4737 10.075865,5.45657 1.373315,0.18213 2.735871,0.4872 4.119944,0.54638 8.42967,0.36042 16.86136,-3.09518 24.61087,-5.96283 1.80479,-0.75798 6.01541,-2.46885 7.8903,-3.45685 1.93171,-1.01794 3.82561,-2.10843 5.69472,-3.23722 1.24042,-0.74912 2.15948,-1.40484 2.58512,-2.7743 -0.0286,-0.23829 -0.0125,-0.48632 -0.0857,-0.71488 -0.0648,-0.20215 -0.20624,-0.37135 -0.31973,-0.55073 -0.73572,-1.16292 -1.66373,-2.18898 -2.44631,-3.31866 -2.046,-2.38239 -4.37477,-4.48452 -6.74893,-6.53534 -3.09002,-2.63298 -6.40395,-4.97334 -10.0215,-6.83754 -6.13143,-3.32648 -12.42154,-6.34615 -18.784595,-9.20342 -1.823768,-0.83007 -3.637862,-1.68176 -5.471832,-2.48904 -1.565846,-0.68925 -3.14865,-1.47764 -4.901904,-1.41013 0,0 -3.189581,2.31737 -3.189581,2.31737 z" />
    <path
       style="fill:#ff9955;stroke-width:0.264583"
       id="path1169"
       d="m 92.298265,164.57586 c -1.846723,-0.59732 -3.595669,-1.43827 -5.318638,-2.32164 -0.627216,-0.40613 -1.364245,-0.7283 -1.886273,-1.28081 -0.293489,-0.31063 -0.453567,-0.60455 -0.682839,-0.96578 -0.732206,-1.25544 -1.330246,-2.60154 -1.84009,-3.96305 -0.370793,-0.99964 -0.465162,-2.04991 -0.517337,-3.10435 0.04197,-1.38327 0.28058,-2.74674 0.486732,-4.11163 0.05055,-0.3347 0.06726,-0.6759 0.147786,-1.00468 0.09264,-0.37821 0.246473,-0.73874 0.36971,-1.10811 0.793208,-1.69192 1.923362,-3.18558 3.050966,-4.66296 0.775761,-1.0164 1.618245,-2.13558 2.548858,-3.02093 0.557105,-0.53 1.17705,-0.98976 1.765573,-1.48464 0.652544,-0.44475 1.311473,-0.88026 1.957634,-1.33423 0.310745,-0.21832 -1.317853,0.72595 -0.95117,0.62713 0.795822,-0.21448 1.497934,-0.69154 2.269149,-0.98233 2.319912,-0.87475 4.689954,-1.3005 7.125784,-1.68786 3.76711,-0.46402 7.64348,-0.52304 11.36844,0.30845 0.76791,0.17142 1.52077,0.4044 2.28115,0.60659 4.53779,1.41853 8.93982,3.21212 13.20301,5.30911 1.34174,0.72005 2.7255,1.39217 3.99001,2.24803 0.29602,0.20036 0.60869,0.38782 0.85599,0.64591 0.94713,0.98847 0.94588,1.53476 1.43651,2.9012 0.88384,3.99427 1.36262,8.42516 0.84762,12.50864 -0.0965,0.76542 -0.27775,1.51776 -0.41663,2.27664 -0.98496,3.8617 -2.63713,7.48749 -4.45831,11.01434 -0.89294,1.6341 -1.82005,3.25952 -2.89251,4.78381 -0.0993,0.10453 -0.19178,0.21605 -0.29799,0.31358 -0.35502,0.32599 -1.62015,1.04423 -1.20584,0.79795 0.80818,-0.48039 1.64704,-0.91059 2.4348,-1.42379 0.33627,-0.21907 -0.71516,0.36464 -1.07665,0.539 -0.373,0.17991 -0.75107,0.34913 -1.1266,0.52369 -3.01007,1.374 -6.33435,1.75965 -9.59052,2.10828 -1.34033,0.14544 -2.68405,0.19517 -4.03073,0.2097 0,0 -3.09471,2.2516 -3.09471,2.2516 v 0 c 1.37048,-0.004 2.73522,-0.0596 4.09883,-0.2123 3.24827,-0.35232 6.5888,-0.68199 9.62013,-1.97585 2.45513,-1.1181 3.70608,-1.84924 6.38005,-3.41832 0.26567,-0.15589 0.52746,-0.32065 0.77169,-0.50836 0.35966,-0.2764 0.45916,-0.44416 0.71382,-0.77795 0.98399,-1.54866 1.91626,-3.12886 2.74377,-4.76762 1.78282,-3.54491 3.34904,-7.20777 4.31539,-11.06863 0.13461,-0.77247 0.31422,-1.53843 0.40382,-2.3174 0.47574,-4.13616 -0.12449,-8.58982 -0.88252,-12.65304 -0.4544,-1.41535 -0.46977,-2.11073 -1.44154,-3.16263 -0.25277,-0.27362 -0.58625,-0.46124 -0.89784,-0.66539 -1.29904,-0.85111 -2.73151,-1.48925 -4.09745,-2.21837 -4.31227,-2.0503 -8.7307,-3.87124 -13.27773,-5.33949 -0.75849,-0.21702 -1.50785,-0.46899 -2.27549,-0.65105 -3.74572,-0.88837 -7.67547,-0.80487 -11.47358,-0.38327 -1.99724,0.2995 -2.86662,0.37433 -4.82496,0.89064 -4.348445,1.14644 -8.308033,3.40728 -11.911914,6.06326 -0.597014,0.51594 -1.225984,0.99707 -1.791041,1.54782 -0.897168,0.87445 -1.774349,2.05208 -2.525866,3.04904 -1.15251,1.52891 -2.315232,3.07043 -3.109535,4.82526 -0.121771,0.39251 -0.272049,0.77729 -0.365315,1.17753 -0.07628,0.32736 -0.0931,0.66578 -0.141719,0.99838 -0.204139,1.3965 -0.433599,2.79097 -0.505544,4.20282 0.02764,1.10155 0.176389,2.18123 0.579202,3.21629 0.534881,1.37963 1.156051,2.73781 1.875385,4.03015 0.233103,0.37936 0.4265,0.73338 0.72367,1.06796 0.532222,0.59922 1.315701,0.92801 1.980739,1.34583 1.742049,0.85521 3.496543,1.67744 5.297744,2.40305 0,0 3.264919,-2.21522 3.264919,-2.21522 z" />
    <ellipse
       style="fill:#ffb380;stroke-width:0.264583"
       id="path1410"
       cx="103.88443"
       cy="145.27365"
       rx="23.846336"
       ry="23.303284" />
    <ellipse
       style="fill:#ffb380;stroke-width:0.218228"
       id="path1867"
       cx="104.53845"
       cy="205.44232"
       rx="45"
       ry="31.673075" />
  </g>
</svg>
